HIERARCHY
ROOT Hips
{
  OFFSET 5.80788e-005 67.184 3.4734
  CHANNELS 6 Xposition Yposition Zposition Zrotation Xrotation Yrotation
  JOINT Chest
  {
    OFFSET 0 8.7983 -4.7612
    CHANNELS 3 Zrotation Xrotation Yrotation
    JOINT Chest2
    {
      OFFSET 0 8.0291 0.4195
      CHANNELS 3 Zrotation Xrotation Yrotation
      JOINT Chest3
      {
        OFFSET 0 9.9351 -2.2114
        CHANNELS 3 Zrotation Xrotation Yrotation
        JOINT Neck
        {
          OFFSET 0 22.3885 -0.4656
          CHANNELS 3 Zrotation Xrotation Yrotation
          JOINT Head
          {
            OFFSET -0.0001 12.643 3.4389
            CHANNELS 3 Zrotation Xrotation Yrotation
            End Site
            {
              OFFSET 0.0001 17.6655 0.5274
            }
          }
        }
        JOINT LeftCollar
        {
          OFFSET 2.2603 21.606 7.4023
          CHANNELS 3 Zrotation Xrotation Yrotation
          JOINT LeftShoulder
          {
            OFFSET 13.5163 -1.1332 -5.0146
            CHANNELS 3 Zrotation Xrotation Yrotation
            JOINT LeftElbow
            {
              OFFSET -0.0995 -28.05 -0.2431
              CHANNELS 3 Zrotation Xrotation Yrotation
              JOINT LeftWrist
              {
                OFFSET 0.0679 -23.3996 -0.1402
                CHANNELS 3 Zrotation Xrotation Yrotation
                JOINT LeftFinger1
                {
                  OFFSET 0.7932 -9.069 2.5189
                  CHANNELS 3 Zrotation Xrotation Yrotation
                  JOINT LeftFinger11
                  {
                    OFFSET -0.8272 -3.3923 0.5977
                    CHANNELS 3 Zrotation Xrotation Yrotation
                    JOINT LeftFinger12
                    {
                      OFFSET -0.5649 -2.3158 0.4082
                      CHANNELS 3 Zrotation Xrotation Yrotation
                      End Site
                      {
                        OFFSET -0.4919 -1.6479 0.2673
                      }
                    }
                  }
                }
                JOINT LeftFinger2
                {
                  OFFSET 0.9159 -9.2044 0.2193
                  CHANNELS 3 Zrotation Xrotation Yrotation
                  JOINT LeftFinger21
                  {
                    OFFSET 0.0117 -4.1944 -0.0248
                    CHANNELS 3 Zrotation Xrotation Yrotation
                    JOINT LeftFinger22
                    {
                      OFFSET 0.0071 -2.3249 -0.0142
                      CHANNELS 3 Zrotation Xrotation Yrotation
                      End Site
                      {
                        OFFSET -0.1475 -2.0882 0.0028
                      }
                    }
                  }
                }
                JOINT LeftFinger3
                {
                  OFFSET 0.6113 -8.7231 -2.0637
                  CHANNELS 3 Zrotation Xrotation Yrotation
                  JOINT LeftFinger31
                  {
                    OFFSET -0.1927 -3.8059 -0.2383
                    CHANNELS 3 Zrotation Xrotation Yrotation
                    JOINT LeftFinger32
                    {
                      OFFSET -0.1091 -2.1688 -0.1362
                      CHANNELS 3 Zrotation Xrotation Yrotation
                      End Site
                      {
                        OFFSET -0.2358 -1.9176 -0.0906
                      }
                    }
                  }
                }
                JOINT LeftFinger4
                {
                  OFFSET -0.6151 -8.0947 -3.5641
                  CHANNELS 3 Zrotation Xrotation Yrotation
                  JOINT LeftFinger41
                  {
                    OFFSET -0.4882 -2.341 -0.6462
                    CHANNELS 3 Zrotation Xrotation Yrotation
                    JOINT LeftFinger42
                    {
                      OFFSET -0.3575 -1.7167 -0.4742
                      CHANNELS 3 Zrotation Xrotation Yrotation
                      End Site
                      {
                        OFFSET -0.4187 -1.5237 -0.3496
                      }
                    }
                  }
                }
                JOINT LeftFinger0
                {
                  OFFSET -1.42 -1.8761 1.4223
                  CHANNELS 3 Zrotation Xrotation Yrotation
                  JOINT LeftFinger01
                  {
                    OFFSET -1.1471 -3.4929 2.6334
                    CHANNELS 3 Zrotation Xrotation Yrotation
                    JOINT LeftFinger02
                    {
                      OFFSET -0.823 -2.3 1.6571
                      CHANNELS 3 Zrotation Xrotation Yrotation
                      End Site
                      {
                        OFFSET -0.5822 -1.6914 1.1582
                      }
                    }
                  }
                }
              }
            }
          }
        }
        JOINT RightCollar
        {
          OFFSET -2.2603 21.606 7.4023
          CHANNELS 3 Zrotation Xrotation Yrotation
          JOINT RightShoulder
          {
            OFFSET -13.5187 -1.1334 -5.0155
            CHANNELS 3 Zrotation Xrotation Yrotation
            JOINT RightElbow
            {
              OFFSET 0.0994 -28.0499 -0.2431
              CHANNELS 3 Zrotation Xrotation Yrotation
              JOINT RightWrist
              {
                OFFSET -0.0679 -23.3996 -0.1402
                CHANNELS 3 Zrotation Xrotation Yrotation
                JOINT RightFinger1
                {
                  OFFSET -0.7932 -9.0691 2.5189
                  CHANNELS 3 Zrotation Xrotation Yrotation
                  JOINT RightFinger11
                  {
                    OFFSET 0.8272 -3.3923 0.5977
                    CHANNELS 3 Zrotation Xrotation Yrotation
                    JOINT RightFinger12
                    {
                      OFFSET 0.565 -2.3158 0.4082
                      CHANNELS 3 Zrotation Xrotation Yrotation
                      End Site
                      {
                        OFFSET 0.4919 -1.6479 0.2673
                      }
                    }
                  }
                }
                JOINT RightFinger2
                {
                  OFFSET -0.916 -9.2044 0.2193
                  CHANNELS 3 Zrotation Xrotation Yrotation
                  JOINT RightFinger21
                  {
                    OFFSET -0.0117 -4.1944 -0.0248
                    CHANNELS 3 Zrotation Xrotation Yrotation
                    JOINT RightFinger22
                    {
                      OFFSET -0.0071 -2.3249 -0.0142
                      CHANNELS 3 Zrotation Xrotation Yrotation
                      End Site
                      {
                        OFFSET 0.1475 -2.0882 0.0028
                      }
                    }
                  }
                }
                JOINT RightFinger3
                {
                  OFFSET -0.6113 -8.7231 -2.0637
                  CHANNELS 3 Zrotation Xrotation Yrotation
                  JOINT RightFinger31
                  {
                    OFFSET 0.1927 -3.8059 -0.2383
                    CHANNELS 3 Zrotation Xrotation Yrotation
                    JOINT RightFinger32
                    {
                      OFFSET 0.1091 -2.1688 -0.1362
                      CHANNELS 3 Zrotation Xrotation Yrotation
                      End Site
                      {
                        OFFSET 0.2358 -1.9176 -0.0906
                      }
                    }
                  }
                }
                JOINT RightFinger4
                {
                  OFFSET 0.6151 -8.0947 -3.564
                  CHANNELS 3 Zrotation Xrotation Yrotation
                  JOINT RightFinger41
                  {
                    OFFSET 0.4882 -2.341 -0.6462
                    CHANNELS 3 Zrotation Xrotation Yrotation
                    JOINT RightFinger42
                    {
                      OFFSET 0.3574 -1.7166 -0.4742
                      CHANNELS 3 Zrotation Xrotation Yrotation
                      End Site
                      {
                        OFFSET 0.4187 -1.5237 -0.3496
                      }
                    }
                  }
                }
                JOINT RightFinger0
                {
                  OFFSET 1.4199 -1.8761 1.4221
                  CHANNELS 3 Zrotation Xrotation Yrotation
                  JOINT RightFinger01
                  {
                    OFFSET 1.1472 -3.4929 2.6336
                    CHANNELS 3 Zrotation Xrotation Yrotation
                    JOINT RightFinger02
                    {
                      OFFSET 0.8229 -2.3 1.6571
                      CHANNELS 3 Zrotation Xrotation Yrotation
                      End Site
                      {
                        OFFSET 0.5822 -1.6914 1.1582
                      }
                    }
                  }
                }
              }
            }
          }
        }
      }
    }
  }
  JOINT RightHip
  {
    OFFSET -9.412 3.9771 -0.7758
    CHANNELS 3 Zrotation Xrotation Yrotation
    JOINT RightKnee
    {
      OFFSET -0.7531 -40.938 0
      CHANNELS 3 Zrotation Xrotation Yrotation
      JOINT RightAnkle
      {
        OFFSET 0 -40.1986 0
        CHANNELS 3 Zrotation Xrotation Yrotation
        JOINT RightToe
        {
          OFFSET 0 -4.4182 9.239
          CHANNELS 3 Zrotation Xrotation Yrotation
          End Site
          {
            OFFSET 0 0 6.1981
          }
        }
      }
    }
  }
  JOINT LeftHip
  {
    OFFSET 9.4119 3.9773 -0.7758
    CHANNELS 3 Zrotation Xrotation Yrotation
    JOINT LeftKnee
    {
      OFFSET 0.7532 -40.9383 0
      CHANNELS 3 Zrotation Xrotation Yrotation
      JOINT LeftAnkle
      {
        OFFSET 0 -40.1986 0
        CHANNELS 3 Zrotation Xrotation Yrotation
        JOINT LeftToe
        {
          OFFSET 0 -4.4182 9.239
          CHANNELS 3 Zrotation Xrotation Yrotation
          End Site
          {
            OFFSET 0 0 6.1981
          }
        }
      }
    }
  }
}
MOTION
Frames:	5
Frame Time:	0.0333333
-3.33692 4.05499 7.65531 -90.0324 -88.9027 -140.032 -9.26815 3.9593 -3.41318 -18.3576 8.41188 -6.16531 -18.3576 8.41187 -6.16531 -15.2987 -37.9964 -25.5585 15.6288 -26.1366 -18.9768 -16.0208 13.424 -36.8787 84.3279 40.6226 53.1859 -2.59703 -41.1326 -7.21272 -3.98781 -22.0979 58.2539 -1.59028e-015 -6.36111e-015 3.18055e-015 -3.18055e-015 0 -6.36111e-015 -1.59028e-015 3.18055e-015 -0 -1.59028e-015 -6.36111e-015 3.18055e-015 -0.0128108 0.0023235 8.42399e-005 -7.95139e-015 3.18055e-015 -1.27222e-014 -1.59028e-015 -6.36111e-015 3.18055e-015 -0.0160082 0.00298879 0.000857667 -0 -9.54166e-015 -0 -1.59028e-015 -6.36111e-015 3.18055e-015 -0.0125616 0.0031082 0.00282158 -0 0 3.18055e-015 -1.59028e-015 -6.36111e-015 3.18055e-015 -3.18055e-015 0 -6.36111e-015 -1.59028e-015 3.18055e-015 -0 1.28765 4.23666 -26.2102 -77.3551 -15.7417 22.9378 -60.9584 -49.7025 -38.4666 5.14315 -2.03232 10.3445 -5.29669e-031 3.18055e-015 9.54166e-015 -1.59028e-015 0 -0 -1.76556e-031 3.18055e-015 3.18055e-015 -5.29669e-031 3.18055e-015 9.54166e-015 0.0129314 0.0023116 -8.70766e-005 0 0 -3.18055e-015 -5.29669e-031 3.18055e-015 9.54166e-015 0.0163336 0.00303253 -0.000873614 -1.59028e-015 -3.18055e-015 -3.18055e-015 -5.29669e-031 3.18055e-015 9.54166e-015 0.0146052 0.00368615 -0.00326417 -1.29936e-006 -4.20176e-006 5.15667e-006 -5.29669e-031 3.18055e-015 9.54166e-015 -1.59028e-015 0 -0 -1.76556e-031 3.18055e-015 3.18055e-015 -64.1889 -58.3648 -54.9476 -10.9213 73.7067 9.19424 13.891 8.89109 -4.05632 -4.56164e-006 -9.88295e-006 -7.16147e-006 78.992 -46.2025 110.833 -6.95422 0.0670036 0.697872 10.1759 10.8255 -9.82779 3.75551e-022 -1.69133e-006 1.27222e-014 
-3.42815 4.05627 7.61743 -90.0378 -88.1719 -140.037 -9.22476 4.17257 -3.37654 -18.2682 8.82781 -6.06311 -18.2682 8.8278 -6.06312 -15.2987 -37.9964 -25.5585 15.6288 -26.1366 -18.9768 -16.0208 13.424 -36.8788 84.3131 40.7074 51.9795 -2.77682 -41.8491 -7.2885 -3.98783 -22.098 58.2539 -7.30372e-006 -1.96753e-007 2.89134e-006 6.22047e-006 -3.76247e-006 -3.46817e-006 -2.47437e-006 6.24835e-007 -2.09378e-006 -7.30372e-006 -1.96753e-007 2.89134e-006 -0.0128259 0.00232853 8.87956e-005 -2.32106e-006 -7.72417e-006 -1.6238e-006 -7.30372e-006 -1.96753e-007 2.89134e-006 -0.0160195 0.00298944 0.000851367 -5.5377e-006 3.27096e-007 -2.4181e-006 -7.30372e-006 -1.96753e-007 2.89134e-006 -0.0125661 0.00312344 0.00282339 -8.29521e-006 -3.42449e-006 -1.80163e-006 -7.30372e-006 -1.96753e-007 2.89134e-006 6.22047e-006 -3.76247e-006 -3.46817e-006 -2.47437e-006 6.24835e-007 -2.09378e-006 1.39836 4.27625 -26.0787 -77.3549 -15.7418 22.9379 -60.4904 -49.5467 -38.1019 4.6522 -2.17701 9.94891 -3.70403e-007 -4.56264e-006 5.13617e-007 -1.38719e-007 1.02739e-006 1.03334e-006 5.09122e-007 3.53526e-006 -1.54696e-006 -3.70403e-007 -4.56264e-006 5.13617e-007 0.0129413 0.00231606 -8.86754e-005 -7.88059e-007 -3.94667e-006 3.61361e-006 -3.70403e-007 -4.56264e-006 5.13617e-007 0.0163138 0.00303475 -0.000872352 5.09058e-007 1.84275e-006 -1.54692e-006 -3.70403e-007 -4.56264e-006 5.13617e-007 0.0146072 0.00367966 -0.00326633 6.88306e-006 9.09036e-007 1.50968e-006 -3.70403e-007 -4.56264e-006 5.13617e-007 -1.38719e-007 1.02739e-006 1.03334e-006 5.09122e-007 3.53526e-006 -1.54696e-006 -62.5409 -58.1277 -53.5482 -10.6886 73.5583 8.97757 13.9806 8.85764 -4.20709 -6.26289e-006 3.22909e-007 -7.30617e-006 79.0608 -46.1044 110.989 -6.95425 0.0670199 0.698016 10.2924 10.7361 -10.5633 -3.97569e-015 -1.73875e-006 -6.36111e-015 
-3.51896 4.05753 7.57839 -90.0396 -87.4404 -140.039 -9.18118 4.38587 -3.33892 -18.179 9.24353 -5.9594 -18.179 9.24353 -5.9594 -15.2987 -37.9964 -25.5585 15.6288 -26.1366 -18.9768 -16.0208 13.424 -36.8788 84.3006 40.7927 50.7682 -2.96022 -42.5663 -7.36835 -3.98784 -22.098 58.2539 3.18055e-015 0 6.36111e-015 3.53113e-031 -3.18055e-015 6.36111e-015 1.59028e-015 9.54166e-015 6.36111e-015 3.18055e-015 0 6.36111e-015 -0.0128208 0.0023218 8.61946e-005 -7.06225e-031 -1.27222e-014 -3.18055e-015 3.18055e-015 0 6.36111e-015 -0.0159978 0.00297586 0.000856475 1.11319e-014 0 3.18055e-015 3.18055e-015 0 6.36111e-015 -0.0126011 0.00310887 0.00282913 -1.11319e-014 1.59028e-014 9.54166e-015 3.18055e-015 0 6.36111e-015 3.53113e-031 -3.18055e-015 6.36111e-015 1.59028e-015 9.54166e-015 6.36111e-015 1.50899 4.31609 -25.9473 -77.3551 -15.7417 22.9379 -60.0255 -49.3892 -37.7406 4.15984 -2.31837 9.5517 1.11319e-014 0 3.18055e-015 1.03368e-014 3.18055e-015 -0 9.54166e-015 3.18055e-015 -0 1.11319e-014 0 3.18055e-015 0.0129499 0.00231439 -8.46908e-005 7.95139e-016 -9.54166e-015 -3.18055e-015 1.11319e-014 0 3.18055e-015 0.0163419 0.00303542 -0.000877008 7.95139e-016 0 -9.54166e-015 1.11319e-014 0 3.18055e-015 0.0145932 0.00368704 -0.00326231 3.53113e-031 -6.36111e-015 3.18055e-015 1.11319e-014 0 3.18055e-015 1.03368e-014 3.18055e-015 -0 9.54166e-015 3.18055e-015 -0 -60.9126 -57.8696 -52.1694 -10.4601 73.4097 8.76479 14.0699 8.82385 -4.35778 1.37935e-033 7.95139e-016 -9.93923e-017 79.1291 -46.0061 111.145 -6.95423 0.0670526 0.698139 10.4077 10.6453 -11.2992 2.33595e-006 -1.66023e-006 -6.90084e-006 
-3.60932 4.05876 7.53819 -90.0408 -86.7081 -140.04 -9.13738 4.59902 -3.30041 -18.0901 9.65905 -5.8541 -18.0901 9.65905 -5.85412 -15.2987 -37.9964 -25.5585 15.6288 -26.1366 -18.9768 -16.0208 13.424 -36.8788 84.2904 40.8784 49.552 -3.14729 -43.2838 -7.45231 -3.98783 -22.0981 58.2539 3.49186e-007 -2.49145e-007 -3.65941e-006 -3.09943e-006 1.81164e-006 -8.74327e-007 -2.72937e-006 -5.04812e-006 1.87052e-006 3.49186e-007 -2.49145e-007 -3.65941e-006 -0.0128166 0.0023274 8.76396e-005 -7.95139e-015 0 -0 3.49186e-007 -2.49145e-007 -3.65941e-006 -0.0160298 0.00298943 0.000857029 -9.54166e-015 -3.18055e-015 -3.18055e-015 3.49186e-007 -2.49145e-007 -3.65941e-006 -0.0126041 0.00312349 0.00283103 -4.77083e-015 1.27222e-014 -3.18055e-015 3.49186e-007 -2.49145e-007 -3.65941e-006 -3.09943e-006 1.81164e-006 -8.74327e-007 -2.72937e-006 -5.04812e-006 1.87052e-006 1.61954 4.35621 -25.816 -77.3555 -15.7415 22.9377 -59.5635 -49.2298 -37.3827 3.66613 -2.45643 9.15297 -5.07057e-007 -1.83398e-006 1.54687e-006 -3.18055e-015 1.69521e-006 3.18055e-015 -4.77083e-015 -1.27222e-014 3.18055e-015 -5.07057e-007 -1.83398e-006 1.54687e-006 0.0129694 0.00232051 -8.24814e-005 -7.95139e-016 0 -0 -5.07057e-007 -1.83398e-006 1.54687e-006 0.0163504 0.0030374 -0.000873793 -7.10621e-007 8.15757e-008 1.48387e-006 -5.07057e-007 -1.83398e-006 1.54687e-006 0.0145916 0.00368374 -0.00326406 2.38542e-015 0 -9.54166e-015 -5.07057e-007 -1.83398e-006 1.54687e-006 -3.18055e-015 1.69521e-006 3.18055e-015 -4.77083e-015 -1.27222e-014 3.18055e-015 -59.3063 -57.5904 -50.8133 -10.2353 73.261 8.55599 14.1592 8.78973 -4.50841 -7.95139e-016 2.38542e-015 8.44835e-016 79.1666 -45.9159 111.278 -6.95417 0.0216096 0.693759 10.5224 10.5759 -12.0367 -8.00008e-007 3.72884e-006 -2.9576e-007 
-3.69922 4.05997 7.49685 -90.0413 -85.9753 -140.041 -9.09343 4.81208 -3.26092 -18.0015 10.0743 -5.74728 -18.0015 10.0743 -5.74728 -15.2986 -37.9964 -25.5585 15.6288 -26.1366 -18.9768 -16.0208 13.4239 -36.8788 84.2827 40.9645 48.3313 -3.33828 -44.0019 -7.54065 -3.98784 -22.0981 58.2539 3.80412e-006 -6.85431e-007 -3.69762e-007 3.18055e-015 -3.18055e-015 -0 -0 0 3.18055e-015 3.80412e-006 -6.85431e-007 -3.69762e-007 -0.012863 0.00233829 8.32901e-005 -4.77083e-015 6.36111e-015 -3.18055e-015 3.80412e-006 -6.85431e-007 -3.69762e-007 -0.016048 0.0029978 0.000861646 7.67686e-007 -1.12453e-007 -1.28266e-006 3.80412e-006 -6.85431e-007 -3.69762e-007 -0.0125602 0.00311976 0.00281861 -9.54166e-015 -3.18055e-015 3.18055e-015 3.80412e-006 -6.85431e-007 -3.69762e-007 3.18055e-015 -3.18055e-015 -0 -0 0 3.18055e-015 1.73001 4.39657 -25.6847 -77.3553 -15.7415 22.9378 -59.1044 -49.0683 -37.0273 3.17108 -2.5911 8.75282 -7.95139e-016 0 9.54166e-015 -7.95139e-016 -6.36111e-015 9.54166e-015 7.95139e-016 -6.36111e-015 9.54166e-015 -7.95139e-016 0 9.54166e-015 0.0129477 0.00231439 -8.72862e-005 -1.59028e-015 0 3.18055e-015 -7.95139e-016 0 9.54166e-015 0.0163589 0.00303759 -0.000872147 6.46777e-007 1.64084e-006 -2.58682e-006 -7.95139e-016 0 9.54166e-015 0.01461 0.00368779 -0.00327214 1.59028e-015 -6.36111e-015 -9.54166e-015 -7.95139e-016 0 9.54166e-015 -7.95139e-016 -6.36111e-015 9.54166e-015 7.95139e-016 -6.36111e-015 9.54166e-015 -57.7228 -57.291 -49.4811 -10.0145 73.1121 8.35105 14.2483 8.75522 -4.65898 -4.02597e-006 1.46559e-005 1.66909e-005 79.2433 -45.8148 111.44 -6.95421 0.0359694 0.695176 10.6353 10.4746 -12.7725 7.78734e-008 3.03656e-006 1.72601e-006 
